<svg width="180" height="146" viewBox="0 0 180 146" fill="none" xmlns="http://www.w3.org/2000/svg">
<g clip-path="url(#clip0_1172_3594)">
<path d="M177.4 86.7998H174.9V89.3998H177.4H180V86.7998H177.4Z" fill="#313232"/>
<path d="M169.7 104.7V107.2H172.3H174.9V104.7H172.3H169.7Z" fill="#313232"/>
<path d="M169.7 89.4004H167.1H164.6V91.9004H162H159.4H156.9H154.3V94.5004H156.9H159.4H162H164.6V97.0004V99.6004H167.1V97.0004V94.5004V91.9004H169.7H172.3H174.9V89.4004H172.3H169.7Z" fill="#313232"/>
<path d="M167.1 102.1H164.6H162H159.4H156.9H154.3V104.7H156.9H159.4H162H164.6V107.2H167.1V104.7H169.7V102.1H167.1Z" fill="#313232"/>
<path d="M167.2 74H164.6V76.6H167.2V74Z" fill="#313232"/>
<path d="M162 109.8V112.3H164.6V109.8V107.2H162V109.8Z" fill="#313232"/>
<path d="M162 86.8002H164.6V84.2002V81.7002H162V84.2002V86.8002Z" fill="#313232"/>
<path d="M164.6 76.5996H162V79.1996H164.6V76.5996Z" fill="#313232"/>
<path d="M162 112.3H159.4V114.9H162V112.3Z" fill="#313232"/>
<path d="M162 79.0996H159.4V81.6996H162V79.0996Z" fill="#313232"/>
<path d="M159.5 114.9H156.9V117.5H159.5V114.9Z" fill="#313232"/>
<path d="M159.5 81.7002H156.9V84.3002H159.5V81.7002Z" fill="#313232"/>
<path d="M159.5 74H156.9V76.6H159.5V74Z" fill="#313232"/>
<path d="M156.9 84.2002H154.3V86.8002H156.9V84.2002Z" fill="#313232"/>
<path d="M156.9 71.5H154.3V74.1H156.9V71.5Z" fill="#313232"/>
<path d="M151.7 117.4V120H154.3H156.9V117.4H154.3H151.7Z" fill="#313232"/>
<path d="M154.3 94.5H151.7V97.1H154.3V94.5Z" fill="#313232"/>
<path d="M154.3 86.7998H151.7V89.3998H154.3V86.7998Z" fill="#313232"/>
<path d="M151.7 114.9H149.1V117.5H151.7V114.9Z" fill="#313232"/>
<path d="M146.6 112.3V109.8H144V112.3H141.4H138.9H136.3H133.7H131.1H128.6H126H123.4V114.9H126H128.6V117.4H131.1V114.9H133.7H136.3H138.9H141.4H144H146.6H149.1V112.3H146.6Z" fill="#313232"/>
<path d="M146.6 99.6V102.1H149.1V99.6V97V94.5H146.6V97V99.6Z" fill="#313232"/>
<path d="M149.1 71.5004H151.7H154.3V68.9004H151.7H149.1H146.6H144V71.5004H146.6H149.1Z" fill="#313232"/>
<path d="M146.6 102.1H144V104.7H146.6V102.1Z" fill="#313232"/>
<path d="M146.6 91.9004H144V94.5004H146.6V91.9004Z" fill="#313232"/>
<path d="M141.4 107.2V109.8H144V107.2V104.7H141.4V107.2Z" fill="#313232"/>
<path d="M144 74V71.5H141.4V74V76.6H144V74Z" fill="#313232"/>
<path d="M138.9 132.8V135.3H141.4V132.8V130.2V127.7H138.9V130.2V132.8Z" fill="#313232"/>
<path d="M141.4 99.5996H138.9V102.1V104.7H141.4V102.1V99.5996Z" fill="#313232"/>
<path d="M141.4 79.0996V76.5996H138.9V79.0996V81.6996H141.4V79.0996Z" fill="#313232"/>
<path d="M138.9 135.3H136.3V137.9H138.9V135.3Z" fill="#313232"/>
<path d="M136.3 127.7H138.9V125.1V122.5H136.3V125.1V127.7Z" fill="#313232"/>
<path d="M136.3 89.4002V91.9002V94.5002V97.0002V99.6002H138.9V97.0002V94.5002V91.9002H141.4H144V89.4002H141.4H138.9V86.8002V84.2002V81.7002H136.3V84.2002H133.7V86.8002H136.3V89.4002Z" fill="#313232"/>
<path d="M136.3 137.9H133.7V140.5H136.3V137.9Z" fill="#313232"/>
<path d="M136.3 120H133.7V122.6H136.3V120Z" fill="#313232"/>
<path d="M133.7 140.4H131.1V143H133.7V140.4Z" fill="#313232"/>
<path d="M133.7 117.4H131.1V120H133.7V117.4Z" fill="#313232"/>
<path d="M133.7 89.3998V86.7998H131.1H128.6V89.3998H131.1H133.7Z" fill="#313232"/>
<path d="M126 143H123.4V140.4H120.9V143H118.3H115.7H113.1H110.6H108H105.4H102.9H100.3H97.6999H95.0999H92.5999H89.9999H87.3999H84.8999H82.2999H79.6999H77.0999H74.5999H71.9999H69.3999H66.8999H64.2999H61.6999H59.0999H56.5999H53.9999H51.3999H48.8999H46.2999H43.6999H41.0999H38.5999H35.9999H33.3999H30.8999H28.2999H25.6999H23.0999H20.5999H17.9999H15.3999V140.4V137.9H12.8999V140.4V143V145.5H15.3999H17.9999H20.5999H23.0999H25.6999H28.2999H30.8999H33.3999H35.9999H38.5999H41.0999H43.6999H46.2999H48.8999H51.3999H53.9999H56.5999H59.0999H61.6999H64.2999H66.8999H69.3999H71.9999H74.5999H77.0999H79.6999H82.2999H84.8999H87.3999H89.9999H92.5999H95.0999H97.6999H100.3H102.9H105.4H108H110.6H113.1H115.7H118.3H120.9H123.4H126H128.6H131.1V143H128.6H126Z" fill="#313232"/>
<path d="M128.6 91.9004V89.4004H126H123.4V91.9004H126H128.6Z" fill="#313232"/>
<path d="M120.9 137.9H118.3V140.5H120.9V137.9Z" fill="#313232"/>
<path d="M123.5 137.9H120.9V140.5H123.5V137.9Z" fill="#313232"/>
<path d="M126 137.9H123.4V140.5H126V137.9Z" fill="#313232"/>
<path d="M118.3 114.9H115.7H113.1V117.4H115.7H118.3H120.9H123.4V114.9H120.9H118.3Z" fill="#313232"/>
<path d="M120.9 94.5004H123.4V91.9004H120.9H118.3H115.7V94.5004H118.3H120.9Z" fill="#313232"/>
<path d="M115.7 135.3V137.9H118.3V135.3V132.8H120.9H123.4H126V130.2H123.4H120.9H118.3H115.7V132.8V135.3Z" fill="#313232"/>
<path d="M115.7 127.7H113.1V130.3H115.7V127.7Z" fill="#313232"/>
<path d="M113.1 71.5004V74.0004H115.7V71.5004V68.9004V66.4004H113.1V68.9004V71.5004Z" fill="#313232"/>
<path d="M110.6 127.7H113.1V125.1H115.7H118.3H120.9H123.4V122.5H120.9H118.3H115.7H113.1H110.6V125.1V127.7Z" fill="#313232"/>
<path d="M110.6 127.7H108V130.3H110.6V127.7Z" fill="#313232"/>
<path d="M108 117.4H105.4H102.9H100.3V120H102.9H105.4H108V122.5H110.6V120H113.1V117.4H110.6H108Z" fill="#313232"/>
<path d="M108 61.3002V63.8002V66.4002V68.9002V71.5002V74.0002V76.6002V79.1002V81.7002H110.6V79.1002V76.6002H113.1V74.0002H110.6V71.5002V68.9002V66.4002H113.1V63.8002H110.6V61.3002V58.7002V56.2002H108V58.7002V61.3002Z" fill="#313232"/>
<path d="M105.4 132.8V135.3H108V132.8V130.2H105.4V132.8Z" fill="#313232"/>
<path d="M105.4 84.2002V86.8002V89.4002V91.9002V94.5002H102.9V97.0002H105.4H108H110.6H113.1H115.7V94.5002H113.1H110.6H108V91.9002V89.4002V86.8002V84.2002V81.7002H105.4V84.2002Z" fill="#313232"/>
<path d="M105.4 51.1V53.6V56.2H108V53.6V51.1V48.5V46H105.4V48.5V51.1Z" fill="#313232"/>
<path d="M105.5 135.3H102.9V137.9H105.5V135.3Z" fill="#313232"/>
<path d="M105.4 79.1002V76.6002V74.0002V71.5002V68.9002V66.4002V63.8002V61.3002V58.7002V56.2002H102.9V58.7002V61.3002V63.8002V66.4002V68.9002V71.5002V74.0002V76.6002V79.1002V81.7002H105.4V79.1002Z" fill="#313232"/>
<path d="M102.9 45.9998H105.4V43.3998V40.7998H102.9V43.3998V45.9998Z" fill="#313232"/>
<path d="M102.9 137.9H100.3V140.5H102.9V137.9Z" fill="#313232"/>
<path d="M102.9 99.6V97H100.3H97.7V99.6H100.3H102.9Z" fill="#313232"/>
<path d="M102.9 89.4002V86.8002V84.2002V81.7002H100.3V84.2002V86.8002V89.4002V91.9002H102.9V89.4002Z" fill="#313232"/>
<path d="M102.9 51.1V48.5H100.3V51.1V53.6V56.2H102.9V53.6V51.1Z" fill="#313232"/>
<path d="M102.9 38.2998H100.3V40.8998H102.9V38.2998Z" fill="#313232"/>
<path d="M100.3 135.3H97.7V137.9H100.3V135.3Z" fill="#313232"/>
<path d="M100.3 117.4V114.9H97.7001V112.3V109.8H95.1001V107.2V104.7V102.1H92.6001V104.7V107.2V109.8V112.3H95.1001V114.9V117.4H97.7001H100.3Z" fill="#313232"/>
<path d="M100.3 91.9004H97.7V94.5004H100.3V91.9004Z" fill="#313232"/>
<path d="M100.3 43.4004H97.7V46.0004V48.5004H100.3V46.0004V43.4004Z" fill="#313232"/>
<path d="M100.3 35.7002H97.7V38.3002H100.3V35.7002Z" fill="#313232"/>
<path d="M97.7001 132.8H95.1001V135.4H97.7001V132.8Z" fill="#313232"/>
<path d="M97.7001 99.5996H95.1001V102.2H97.7001V99.5996Z" fill="#313232"/>
<path d="M95.1 94.5H92.6H90V97H92.6H95.1H97.7V94.5H95.1Z" fill="#313232"/>
<path d="M97.7001 40.7998H95.1001V43.3998H97.7001V40.7998Z" fill="#313232"/>
<path d="M97.7001 33.2002H95.1001V35.8002H97.7001V33.2002Z" fill="#313232"/>
<path d="M92.6 130.2H90V132.8H92.6H95.1V130.2H92.6Z" fill="#313232"/>
<path d="M95.2001 117.4H92.6001V120H95.2001V117.4Z" fill="#313232"/>
<path d="M95.2001 38.2998H92.6001V40.8998H95.2001V38.2998Z" fill="#313232"/>
<path d="M95.2001 30.5996H92.6001V33.1996H95.2001V30.5996Z" fill="#313232"/>
<path d="M92.5999 122.5V120H89.9999H87.3999V122.5H89.9999H92.5999Z" fill="#313232"/>
<path d="M92.6 35.7002H90V38.3002H92.6V35.7002Z" fill="#313232"/>
<path d="M92.6 28.0996H90V30.6996H92.6V28.0996Z" fill="#313232"/>
<path d="M89.9999 127.7H87.3999V130.3H89.9999V127.7Z" fill="#313232"/>
<path d="M89.9999 91.9004H87.3999V94.5004H89.9999V91.9004Z" fill="#313232"/>
<path d="M87.3999 33.2002H84.8999V35.7002H87.3999H89.9999V33.2002H87.3999Z" fill="#313232"/>
<path d="M89.9999 25.5H87.3999V28.1H89.9999V25.5Z" fill="#313232"/>
<path d="M87.4 122.5H84.9V125.1H82.3V127.7H84.9H87.4V125.1V122.5Z" fill="#313232"/>
<path d="M84.8999 112.3H87.3999V109.8V107.2H84.8999V109.8V112.3Z" fill="#313232"/>
<path d="M84.9001 89.4002H82.3001V86.8002V84.2002H79.7001V86.8002V89.4002V91.9002H77.1001V94.5002H79.7001H82.3001V91.9002H84.9001H87.4001V89.4002H84.9001Z" fill="#313232"/>
<path d="M87.4999 23H84.8999V25.6H87.4999V23Z" fill="#313232"/>
<path d="M84.9 112.3H82.3V114.9H84.9V112.3Z" fill="#313232"/>
<path d="M84.9 104.7H82.3V107.3H84.9V104.7Z" fill="#313232"/>
<path d="M84.9 30.5996H82.3V33.1996H84.9V30.5996Z" fill="#313232"/>
<path d="M82.3001 104.7V102.1H79.7001H77.1001V104.7H79.7001H82.3001Z" fill="#313232"/>
<path d="M79.7001 56.2002H77.1001V58.8002H79.7001V56.2002Z" fill="#313232"/>
<path d="M79.7001 28.0996H77.1001V30.5996H79.7001H82.3001V28.0996H79.7001Z" fill="#313232"/>
<path d="M82.3 23.0004H84.9V20.4004H82.3H79.7V23.0004H82.3Z" fill="#313232"/>
<path d="M79.7001 15.3002H82.3001V12.8002V10.2002H79.7001H77.1001V12.8002H79.7001V15.3002Z" fill="#313232"/>
<path d="M52.9001 127.7H52.3H51.8H51.2001H50.7001H50.1H49.6H49H48.5H47.9001H47.4001H46.8H46.3V130.2H46.8H47.4001H47.9001H48.5H49H49.6H50.1H50.7001H51.2001H51.8H52.3H52.9001H53.4001H54V127.7H53.4001H52.9001Z" fill="#313232"/>
<path d="M77.1001 114.9V117.4H79.7001H82.3001V114.9H79.7001H77.1001Z" fill="#313232"/>
<path d="M77.1001 81.7002H74.6001V84.2002H77.1001H79.7001V81.7002H77.1001Z" fill="#313232"/>
<path d="M77.1 56.2002V53.7002H74.6H72V56.2002H74.6H77.1Z" fill="#313232"/>
<path d="M77.1001 17.8998V20.3998H79.7001V17.8998V15.2998H77.1001V17.8998Z" fill="#313232"/>
<path d="M77.2001 112.3H74.6001V114.9H77.2001V112.3Z" fill="#313232"/>
<path d="M77.2001 104.7H74.6001V107.3H77.2001V104.7Z" fill="#313232"/>
<path d="M74.5999 25.5H71.9999H69.3999H66.8999V28.1H69.3999H71.9999H74.5999H77.0999V25.5H74.5999Z" fill="#313232"/>
<path d="M77.2001 12.7998H74.6001V15.3998H77.2001V12.7998Z" fill="#313232"/>
<path d="M74.6 7.69961H77.1V5.09961V2.59961H74.6H72V5.09961H74.6V7.69961Z" fill="#313232"/>
<path d="M74.6 109.8V107.2H72V109.8V112.3H74.6V109.8Z" fill="#313232"/>
<path d="M72 94.5004H69.4V91.9004H66.9H64.3V94.5004H66.9H69.4V97.0004H72H74.6H77.1V94.5004H74.6H72Z" fill="#313232"/>
<path d="M71.9999 58.8002V56.2002H69.3999V58.8002V61.4002H71.9999V58.8002Z" fill="#313232"/>
<path d="M72 10.2002V12.8002H74.6V10.2002V7.7002H72V10.2002Z" fill="#313232"/>
<path d="M71.9999 12.7998H69.3999V15.3998H71.9999V12.7998Z" fill="#313232"/>
<path d="M69.3999 7.69961H71.9999V5.09961H69.3999H66.8999V7.69961H69.3999Z" fill="#313232"/>
<path d="M64.2999 23H61.6999H59.0999H56.5999H53.9999H51.3999V25.5H53.9999H56.5999H59.0999H61.6999H64.2999H66.8999V23H64.2999Z" fill="#313232"/>
<path d="M66.9 7.7002H64.3V10.3002H66.9V7.7002Z" fill="#313232"/>
<path d="M64.3 5.1H66.9V2.6V0H64.3H61.7V2.6H64.3V5.1Z" fill="#313232"/>
<path d="M61.7001 89.4004H59.1001V91.9004H61.7001H64.3001V89.4004H61.7001Z" fill="#313232"/>
<path d="M64.3 10.2002H61.7V12.8002H64.3V10.2002Z" fill="#313232"/>
<path d="M61.7001 2.59961H59.1001V5.19961H61.7001V2.59961Z" fill="#313232"/>
<path d="M56.6 63.7998H54V66.3998H56.6V63.7998Z" fill="#313232"/>
<path d="M59.2001 5.09961H56.6001V7.69961H59.2001V5.09961Z" fill="#313232"/>
<path d="M53.9999 91.9004V94.5004H51.3999V97.0004H48.8999V99.6004H51.3999V97.0004H53.9999V94.5004H56.5999H59.0999V91.9004H56.5999H53.9999Z" fill="#313232"/>
<path d="M53.9999 63.7998V61.2998H51.3999H48.8999V63.7998H51.3999H53.9999Z" fill="#313232"/>
<path d="M56.6 7.7002H54V10.3002H56.6V7.7002Z" fill="#313232"/>
<path d="M53.9999 12.8002V10.2002H51.3999H48.8999V12.8002H51.3999H53.9999Z" fill="#313232"/>
<path d="M48.9001 66.3998V63.7998H46.3V66.3998V68.8998H48.9001V66.3998Z" fill="#313232"/>
<path d="M48.9001 99.5996H46.3V102.2H48.9001V99.5996Z" fill="#313232"/>
<path d="M46.2999 25.5H43.7V28.1H46.2999H48.9H51.4V25.5H48.9H46.2999Z" fill="#313232"/>
<path d="M43.7001 125.1H41.1001V127.7H43.7001H46.3001V125.1H43.7001Z" fill="#313232"/>
<path d="M46.2999 102.1H43.7V104.7H46.2999V102.1Z" fill="#313232"/>
<path d="M46.3001 15.2998H48.9001V12.7998H46.3001H43.7001H41.1001V15.2998H43.7001H46.3001Z" fill="#313232"/>
<path d="M43.7001 99.5996H41.1001V102.2H43.7001V99.5996Z" fill="#313232"/>
<path d="M41.2001 97H38.6001V99.6H41.2001V97Z" fill="#313232"/>
<path d="M38.6001 28.0996V30.5996H41.1001H43.7001V28.0996H41.1001H38.6001Z" fill="#313232"/>
<path d="M38.5999 125.1H41.0999V122.5H38.5999V120H35.9999V122.5H33.3999V125.1H35.9999H38.5999Z" fill="#313232"/>
<path d="M38.6 94.5H36V97.1H38.6V94.5Z" fill="#313232"/>
<path d="M38.6 30.5996H36V33.1996H38.6V30.5996Z" fill="#313232"/>
<path d="M38.5999 17.8998H41.0999V15.2998H38.5999H35.9999H33.3999V17.8998H35.9999H38.5999Z" fill="#313232"/>
<path d="M35.9999 117.4H33.3999V120H35.9999V117.4Z" fill="#313232"/>
<path d="M56.6 130.2H54V132.8H56.6V130.2Z" fill="#313232"/>
<path d="M77.2001 130.2H56.6001V132.8H77.2001V130.2Z" fill="#313232"/>
<path d="M79.7001 130.2H77.1001V132.8H79.7001V130.2Z" fill="#313232"/>
<path d="M82.3 127.6H79.7V130.2H82.3V127.6Z" fill="#313232"/>
<path d="M35.9999 91.9004H33.3999V94.5004H35.9999V91.9004Z" fill="#313232"/>
<path d="M35.9999 33.2002H33.3999V35.8002H35.9999V33.2002Z" fill="#313232"/>
<path d="M33.4001 127.7V125.1H30.9H28.3V127.7H30.9H33.4001Z" fill="#313232"/>
<path d="M33.4999 114.9H30.8999V117.5H33.4999V114.9Z" fill="#313232"/>
<path d="M33.4999 89.4004H30.8999V92.0004H33.4999V89.4004Z" fill="#313232"/>
<path d="M33.4999 35.7002H30.8999V38.3002H33.4999V35.7002Z" fill="#313232"/>
<path d="M33.4001 20.4004V17.9004H30.9H28.3V20.4004H30.9H33.4001Z" fill="#313232"/>
<path d="M30.9 112.3H28.3V114.9H30.9V112.3Z" fill="#313232"/>
<path d="M30.9 86.7998H28.3V89.3998H30.9V86.7998Z" fill="#313232"/>
<path d="M30.9 38.2998H28.3V40.8998H30.9V38.2998Z" fill="#313232"/>
<path d="M28.3001 130.2V127.7H25.7001H23.1001V130.2H25.7001H28.3001Z" fill="#313232"/>
<path d="M28.2999 109.8H25.7V112.4H28.2999V109.8Z" fill="#313232"/>
<path d="M25.7 86.8002H28.2999V84.2002V81.7002H25.7V84.2002V86.8002Z" fill="#313232"/>
<path d="M28.2999 40.7998H25.7V43.3998H28.2999V40.7998Z" fill="#313232"/>
<path d="M28.3001 23.0004V20.4004H25.7001H23.1001V23.0004H25.7001H28.3001Z" fill="#313232"/>
<path d="M25.7001 107.2H23.1001V109.8H25.7001V107.2Z" fill="#313232"/>
<path d="M23.1001 81.6996H25.7001V79.0996V76.5996H23.1001V79.0996V81.6996Z" fill="#313232"/>
<path d="M25.7001 43.4004H23.1001V46.0004H25.7001V43.4004Z" fill="#313232"/>
<path d="M23.2001 130.2H20.6001V132.8H23.2001V130.2Z" fill="#313232"/>
<path d="M23.2001 104.7H20.6001V107.3H23.2001V104.7Z" fill="#313232"/>
<path d="M20.6001 48.5V51.1V53.6V56.2V58.7V61.3V63.8V66.4V68.9V71.5V74V76.6H23.1001V74V71.5V68.9V66.4V63.8V61.3V58.7V56.2V53.6V51.1V48.5V46H20.6001V48.5Z" fill="#313232"/>
<path d="M23.2001 23H20.6001V25.6H23.2001V23Z" fill="#313232"/>
<path d="M20.6 132.8H18V135.4H20.6V132.8Z" fill="#313232"/>
<path d="M20.6 102.1H18V104.7H20.6V102.1Z" fill="#313232"/>
<path d="M20.6 25.5H18V28.1H20.6V25.5Z" fill="#313232"/>
<path d="M17.9999 135.3H15.3999V137.9H17.9999V135.3Z" fill="#313232"/>
<path d="M17.9999 97H15.3999V99.6V102.1H17.9999V99.6V97Z" fill="#313232"/>
<path d="M17.9999 28.0996H15.3999V30.6996H17.9999V28.0996Z" fill="#313232"/>
<path d="M15.3999 91.9004H12.8999V94.5004V97.0004H15.3999V94.5004V91.9004Z" fill="#313232"/>
<path d="M15.4999 30.5996H12.8999V33.1996H15.4999V30.5996Z" fill="#313232"/>
<path d="M12.9 86.7998H10.3V89.3998V91.8998H12.9V89.3998V86.7998Z" fill="#313232"/>
<path d="M12.9 74H10.3V76.6H12.9V74Z" fill="#313232"/>
<path d="M12.9 35.7002V33.2002H10.3V35.7002V38.3002H12.9V35.7002Z" fill="#313232"/>
<path d="M7.7001 84.2002H5.1001V86.8002H7.7001H10.3001V84.2002H7.7001Z" fill="#313232"/>
<path d="M10.3 71.5H7.69995V74.1H10.3V71.5Z" fill="#313232"/>
<path d="M10.3 43.3998V40.7998V38.2998H7.69995V40.7998V43.3998V45.9998H10.3V43.3998Z" fill="#313232"/>
<path d="M7.7001 71.5V68.9V66.4V63.8V61.3V58.7V56.2V53.6V51.1V48.5V46H5.1001V48.5V51.1V53.6V56.2V58.7V61.3V63.8V66.4V68.9H2.6001V71.5H5.1001H7.7001Z" fill="#313232"/>
<path d="M5.2001 81.7002H2.6001V84.3002H5.2001V81.7002Z" fill="#313232"/>
<path d="M2.6 76.6V74V71.5H0V74V76.6V79.1V81.7H2.6V79.1V76.6Z" fill="#313232"/>
</g>
<defs>
<clipPath id="clip0_1172_3594">
<rect width="180" height="145.5" fill="white"/>
</clipPath>
</defs>
</svg>
