<svg width="180" height="150" viewBox="0 0 180 150" fill="none" xmlns="http://www.w3.org/2000/svg">
<path d="M155.1 116.1V117.9V119.6V121.4V123.2V125V126.8V128.6H156.8V126.8V125V123.2V121.4V119.6V117.9V116.1H155.1Z" fill="#313232"/>
<path d="M153.3 130.4V132.1H155.1V130.4V128.6H153.3V130.4Z" fill="#313232"/>
<path d="M153.3 116.1H155.1V114.3V112.5H153.3V114.3V116.1Z" fill="#313232"/>
<path d="M153.3 132.1H151.5V133.9H153.3V132.1Z" fill="#313232"/>
<path d="M151.5 112.5H153.3V110.7V108.9H151.5V110.7V112.5Z" fill="#313232"/>
<path d="M151.5 62.5004V64.3004H153.3V62.5004V60.7004V58.9004H151.5V60.7004V62.5004Z" fill="#313232"/>
<path d="M151.5 133.9H149.7V135.7H151.5V133.9Z" fill="#313232"/>
<path d="M151.5 116.1H149.7V117.9H151.5V116.1Z" fill="#313232"/>
<path d="M151.5 107.1H149.7V108.9H151.5V107.1Z" fill="#313232"/>
<path d="M151.5 64.2998H149.7V66.0998H151.5V64.2998Z" fill="#313232"/>
<path d="M151.5 57.0996H149.7V58.8996H151.5V57.0996Z" fill="#313232"/>
<path d="M149.7 135.7H147.9V137.5H149.7V135.7Z" fill="#313232"/>
<path d="M149.7 114.3H147.9V116.1H149.7V114.3Z" fill="#313232"/>
<path d="M149.7 66.0996H147.9V67.8996H149.7V66.0996Z" fill="#313232"/>
<path d="M149.7 55.4004H147.9V57.2004H149.7V55.4004Z" fill="#313232"/>
<path d="M147.9 112.5H146.1V114.3H147.9V112.5Z" fill="#313232"/>
<path d="M146.1 69.6004V71.4004V73.2004V75.0004V76.8004V78.6004V80.4004V82.1004V83.9004V85.7004V87.5004V89.3004V91.1004V92.9004V94.6004V96.4004V98.2004V100V101.8V103.6V105.4V107.1V108.9V110.7H147.9V108.9V107.1H149.7V105.4H147.9V103.6V101.8V100V98.2004V96.4004V94.6004V92.9004V91.1004V89.3004V87.5004V85.7004V83.9004V82.1004V80.4004V78.6004V76.8004V75.0004V73.2004V71.4004V69.6004V67.9004H146.1V69.6004Z" fill="#313232"/>
<path d="M144.4 137.5H142.6H140.8V139.3H142.6H144.4V141.1V142.9V144.6V146.4V148.2H146.1V146.4V144.6V142.9V141.1V139.3H147.9V137.5H146.1H144.4Z" fill="#313232"/>
<path d="M146.2 110.7H144.4V112.5H146.2V110.7Z" fill="#313232"/>
<path d="M144.4 66.1004V64.3004H146.1V62.5004V60.7004H144.4V62.5004H142.6V64.3004V66.1004H140.8H139V64.3004V62.5004V60.7004V58.9004H137.2V60.7004V62.5004V64.3004V66.1004H135.4V64.3004V62.5004H133.6V64.3004V66.1004H131.9H130.1H128.3H126.5H124.7H122.9H121.2V67.9004H122.9H124.7H126.5H128.3H130.1H131.9H133.6H135.4H137.2H139H140.8H142.6H144.4H146.1V66.1004H144.4Z" fill="#313232"/>
<path d="M144.4 119.6H142.6V121.4H144.4V119.6Z" fill="#313232"/>
<path d="M144.4 108.9H142.6V110.7H144.4V108.9Z" fill="#313232"/>
<path d="M144.4 55.3996H146.1H147.9V53.5996H146.1H144.4H142.6V55.3996H144.4Z" fill="#313232"/>
<path d="M140.8 148.2H139H137.2H135.4H133.6H131.9H130.1H128.3H126.5H124.7H122.9H121.2H119.4H117.6H115.8H114H112.2H110.4H108.7H106.9H105.1H103.3H101.5H99.7H98H96.2H94.4H92.6H90.8V146.4V144.6V142.9V141.1V139.3V137.5V135.7V133.9V132.1V130.4V128.6V126.8V125V123.2V121.4V119.6V117.9V116.1V114.3V112.5V110.7V108.9V107.1V105.4V103.6V101.8V100V98.2004V96.4004V94.6004V92.9004V91.1004V89.3004V87.5004V85.7004V83.9004H89V85.7004V87.5004V89.3004V91.1004V92.9004V94.6004V96.4004V98.2004V100V101.8V103.6V105.4V107.1V108.9V110.7V112.5V114.3V116.1V117.9V119.6V121.4V123.2V125V126.8V128.6V130.4V132.1V133.9V135.7V137.5V139.3V141.1V142.9V144.6V146.4V148.2H87.2H85.5H83.7H81.9H80.1H78.3H76.5H74.8H73H71.2H69.4H67.6H65.8H64H62.3H60.5H58.7H56.9H55.1H53.3H51.6H49.8H48H46.2H44.4H42.6H40.8H39.1H37.3H35.5V150H37.3H39.1H40.8H42.6H44.4H46.2H48H49.8H51.6H53.3H55.1H56.9H58.7H60.5H62.3H64H65.8H67.6H69.4H71.2H73H74.8H76.5H78.3H80.1H81.9H83.7H85.5H87.2H89H90.8H92.6H94.4H96.2H98H99.7H101.5H103.3H105.1H106.9H108.7H110.4H112.2H114H115.8H117.6H119.4H121.2H122.9H124.7H126.5H128.3H130.1H131.9H133.6H135.4H137.2H139H140.8H142.6H144.4V148.2H142.6H140.8Z" fill="#313232"/>
<path d="M142.6 126.8H140.8V128.6H142.6V126.8Z" fill="#313232"/>
<path d="M142.6 117.9H140.8V119.7H142.6V117.9Z" fill="#313232"/>
<path d="M142.6 107.1H140.8V108.9H142.6V107.1Z" fill="#313232"/>
<path d="M142.6 55.4004H140.8V57.2004H142.6V55.4004Z" fill="#313232"/>
<path d="M142.6 51.7998H140.8V53.5998H142.6V51.7998Z" fill="#313232"/>
<path d="M140.8 135.7H139V137.5H140.8V135.7Z" fill="#313232"/>
<path d="M140.8 125H139V126.8H140.8V125Z" fill="#313232"/>
<path d="M140.8 116.1H139V117.9H140.8V116.1Z" fill="#313232"/>
<path d="M140.8 105.4H139V107.2H140.8V105.4Z" fill="#313232"/>
<path d="M140.8 57.0996H139V58.8996H140.8V57.0996Z" fill="#313232"/>
<path d="M139 51.8002H140.8V50.0002V48.2002H139V50.0002V51.8002Z" fill="#313232"/>
<path d="M139 133.9H137.2V135.7H139V133.9Z" fill="#313232"/>
<path d="M139 123.2H137.2V125H139V123.2Z" fill="#313232"/>
<path d="M139 114.3H137.2V116.1H139V114.3Z" fill="#313232"/>
<path d="M137.2 103.6H135.4V105.4H137.2H139V103.6H137.2Z" fill="#313232"/>
<path d="M139 46.4004H137.2V48.2004H139V46.4004Z" fill="#313232"/>
<path d="M137.2 132.1H135.4V133.9H137.2V132.1Z" fill="#313232"/>
<path d="M137.2 121.4H135.4V123.2H137.2V121.4Z" fill="#313232"/>
<path d="M135.4 114.3H137.2V112.5V110.7H135.4V112.5V114.3Z" fill="#313232"/>
<path d="M137.2 44.5996H135.4V46.3996H137.2V44.5996Z" fill="#313232"/>
<path d="M135.4 130.4H133.6V132.2H135.4V130.4Z" fill="#313232"/>
<path d="M133.6 116.1V117.9V119.6V121.4H135.4V119.6V117.9V116.1V114.3H133.6V116.1Z" fill="#313232"/>
<path d="M133.6 107.1V108.9V110.7H135.4V108.9V107.1V105.4H133.6V107.1Z" fill="#313232"/>
<path d="M135.4 42.9004H133.6V44.7004H135.4V42.9004Z" fill="#313232"/>
<path d="M131.9 123.2V125V126.8V128.6V130.4H133.6V128.6V126.8V125V123.2V121.4H131.9V123.2Z" fill="#313232"/>
<path d="M131.9 58.9004V60.7004V62.5004H133.6V60.7004V58.9004V57.1004V55.4004H131.9V57.1004V58.9004Z" fill="#313232"/>
<path d="M133.7 41.0996H131.9V42.8996H133.7V41.0996Z" fill="#313232"/>
<path d="M131.9 53.5996H130.1V55.3996H131.9V53.5996Z" fill="#313232"/>
<path d="M131.9 39.2998H130.1V41.0998H131.9V39.2998Z" fill="#313232"/>
<path d="M130.1 51.7998H128.3V53.5998H130.1V51.7998Z" fill="#313232"/>
<path d="M130.1 37.5H128.3V39.3H130.1V37.5Z" fill="#313232"/>
<path d="M128.3 50H126.5V51.8H128.3V50Z" fill="#313232"/>
<path d="M128.3 35.7002H126.5V37.5002H128.3V35.7002Z" fill="#313232"/>
<path d="M126.5 48.2002H124.7V50.0002H126.5V48.2002Z" fill="#313232"/>
<path d="M126.5 33.9004H124.7V35.7004H126.5V33.9004Z" fill="#313232"/>
<path d="M124.7 46.4004H122.9V48.2004H124.7V46.4004Z" fill="#313232"/>
<path d="M124.7 32.0996H122.9V33.8996H124.7V32.0996Z" fill="#313232"/>
<path d="M123 44.5996H121.2V46.3996H123V44.5996Z" fill="#313232"/>
<path d="M121.2 32.1004H122.9V30.4004H121.2H119.4V32.1004H121.2Z" fill="#313232"/>
<path d="M117.6 67.9004H115.8H114V69.6004H115.8H117.6H119.4H121.2V67.9004H119.4H117.6Z" fill="#313232"/>
<path d="M119.4 44.6004H121.2V42.9004H119.4H117.6V44.6004H119.4Z" fill="#313232"/>
<path d="M117.6 30.3996H119.4V28.5996H117.6H115.8V30.3996H117.6Z" fill="#313232"/>
<path d="M115.8 42.8996H117.6V41.0996H115.8H114V42.8996H115.8Z" fill="#313232"/>
<path d="M114 28.5998H115.8V26.7998H114H112.2V28.5998H114Z" fill="#313232"/>
<path d="M110.4 69.5996V71.3996H112.2H114V69.5996H112.2H110.4Z" fill="#313232"/>
<path d="M112.2 41.0998H114V39.2998H112.2H110.4V41.0998H112.2Z" fill="#313232"/>
<path d="M110.5 71.4004H108.7V73.2004H110.5V71.4004Z" fill="#313232"/>
<path d="M108.7 39.3H110.4V37.5H108.7H106.9H105.1V39.3H106.9H108.7Z" fill="#313232"/>
<path d="M106.9 71.3996V69.5996H105.1V67.8996V66.0996H103.3H101.5V67.8996V69.5996H99.7V71.3996V73.1996V74.9996H101.5V76.7996H103.3H105.1V74.9996H106.9H108.7V73.1996H106.9V71.3996Z" fill="#313232"/>
<path d="M106.9 26.8H108.7H110.4H112.2V25H110.4H108.7H106.9H105.1V26.8H106.9Z" fill="#313232"/>
<path d="M105.1 39.2998H103.3V41.0998H105.1V39.2998Z" fill="#313232"/>
<path d="M103.3 41.0996H101.5V42.8996H103.3V41.0996Z" fill="#313232"/>
<path d="M101.5 76.7998H99.7V78.5998H101.5V76.7998Z" fill="#313232"/>
<path d="M101.5 42.9004H99.7V44.7004H101.5V42.9004Z" fill="#313232"/>
<path d="M99.7 46.3996V44.5996H98V46.3996V48.1996H99.7V46.3996Z" fill="#313232"/>
<path d="M96.2 78.5996V80.3996H98H99.7V78.5996H98H96.2Z" fill="#313232"/>
<path d="M94.3999 44.5996V46.3996V48.1996V49.9996H96.1999H97.9999V48.1996H96.1999V46.3996V44.5996V42.8996V41.0996H94.3999V42.8996V44.5996Z" fill="#313232"/>
<path d="M92.6001 80.4004V82.1004H94.4001H96.2001V80.4004H94.4001H92.6001Z" fill="#313232"/>
<path d="M92.6 82.0996H90.8V83.8996H92.6V82.0996Z" fill="#313232"/>
<path d="M92.6 44.5996H90.8V46.3996H92.6V44.5996Z" fill="#313232"/>
<path d="M94.4001 42.9004H92.6001V44.7004H94.4001V42.9004Z" fill="#313232"/>
<path d="M90.8 46.4004H89V48.2004H90.8V46.4004Z" fill="#313232"/>
<path d="M89 82.0996H87.2V83.8996H89V82.0996Z" fill="#313232"/>
<path d="M85.5 80.4004H83.7V82.1004H85.5H87.1999V80.4004H85.5Z" fill="#313232"/>
<path d="M85.5 46.4004V48.2004V50.0004H87.2H89V48.2004H87.2V46.4004V44.6004V42.9004H85.5V44.6004V46.4004Z" fill="#313232"/>
<path d="M85.5 41.0996H83.7V42.8996H85.5V41.0996Z" fill="#313232"/>
<path d="M81.9001 78.5996H80.1001V80.3996H81.9001H83.7001V78.5996H81.9001Z" fill="#313232"/>
<path d="M83.6999 42.9004H81.8999V44.7004H83.6999V42.9004Z" fill="#313232"/>
<path d="M83.7001 25.0002H85.5001H87.2001H89.0001H90.8001H92.6001H94.4001H96.2001H98.0001H99.7001H101.5H103.3H105.1V23.2002H103.3H101.5H99.7001H98.0001H96.2001H94.4001H92.6001H90.8001H89.0001H87.2001H85.5001H83.7001H81.9001H80.1001V25.0002H81.9001H83.7001Z" fill="#313232"/>
<path d="M81.9001 44.5996H80.1001V46.3996H81.9001V44.5996Z" fill="#313232"/>
<path d="M80.1 76.7998H78.3V78.5998H80.1V76.7998Z" fill="#313232"/>
<path d="M80.0999 74.9996V73.1996V71.3996V69.5996H78.2999V67.8996V66.0996H76.5H74.7999V67.8996V69.5996H73V71.3996V73.1996H71.2V74.9996H73H74.7999V76.7996H76.5H78.2999V74.9996H80.0999Z" fill="#313232"/>
<path d="M80.1 46.4004H78.3V48.2004H80.1V46.4004Z" fill="#313232"/>
<path d="M78.3 42.9004H76.5V44.7004H78.3V42.9004Z" fill="#313232"/>
<path d="M78.3 41.0996H76.5V42.8996H78.3V41.0996Z" fill="#313232"/>
<path d="M80.1 39.2998H78.3V41.0998H80.1V39.2998Z" fill="#313232"/>
<path d="M80.1 37.5H78.3V39.3H80.1V37.5Z" fill="#313232"/>
<path d="M78.3 37.5002V35.7002H76.5H74.8V37.5002H76.5H78.3Z" fill="#313232"/>
<path d="M74.8 46.3996V48.1996V49.9996H76.5H78.3V48.1996H76.5V46.3996V44.5996H74.8V46.3996Z" fill="#313232"/>
<path d="M76.5 26.8H78.3H80.1V25H78.3H76.5H74.8H73V26.8H74.8H76.5Z" fill="#313232"/>
<path d="M74.7999 39.3V37.5H73H71.2V39.3H73H74.7999Z" fill="#313232"/>
<path d="M72.9999 28.5998V26.7998H71.1999H69.3999V28.5998H71.1999H72.9999Z" fill="#313232"/>
<path d="M71.1999 71.4004H69.3999V73.2004H71.1999V71.4004Z" fill="#313232"/>
<path d="M71.2001 41.0998V39.2998H69.4001H67.6001V41.0998H69.4001H71.2001Z" fill="#313232"/>
<path d="M67.6 69.5996H65.8V71.3996H67.6H69.4001V69.5996H67.6Z" fill="#313232"/>
<path d="M69.4001 30.3996V28.5996H67.6H65.8V30.3996H67.6H69.4001Z" fill="#313232"/>
<path d="M67.6 42.8996V41.0996H65.8H64V42.8996H65.8H67.6Z" fill="#313232"/>
<path d="M64 67.9004H62.2999H60.5H58.7V69.6004H60.5H62.2999H64H65.7999V67.9004H64Z" fill="#313232"/>
<path d="M65.8 32.1004V30.4004H64H62.3V32.1004H64H65.8Z" fill="#313232"/>
<path d="M64.1 42.9004H62.3V44.7004H64.1V42.9004Z" fill="#313232"/>
<path d="M62.3 44.5996H60.5V46.3996H62.3V44.5996Z" fill="#313232"/>
<path d="M62.3 32.0996H60.5V33.8996H62.3V32.0996Z" fill="#313232"/>
<path d="M60.5 46.4004H58.7V48.2004H60.5V46.4004Z" fill="#313232"/>
<path d="M60.5 33.9004H58.7V35.7004H60.5V33.9004Z" fill="#313232"/>
<path d="M56.9 66.1004H55.0999H53.2999H51.6H49.7999H48H46.2V64.3004V62.5004H44.4V64.3004V66.1004H42.6V64.3004V62.5004V60.7004V58.9004H40.8V60.7004V62.5004V64.3004V66.1004H39.1H37.3V64.3004V62.5004H35.5V60.7004H33.7V62.5004V64.3004H35.5V66.1004H33.7V67.9004H35.5H37.3H39.1H40.8H42.6H44.4H46.2H48H49.7999H51.6H53.2999H55.0999H56.9H58.7V66.1004H56.9Z" fill="#313232"/>
<path d="M58.6999 48.2002H56.8999V50.0002H58.6999V48.2002Z" fill="#313232"/>
<path d="M58.6999 35.7002H56.8999V37.5002H58.6999V35.7002Z" fill="#313232"/>
<path d="M58.6999 23.2004V21.4004V19.6004V17.9004V16.1004V14.3004V12.5004V10.7004V8.90039H56.8999V10.7004V12.5004V14.3004V16.1004V17.9004V19.6004V21.4004V23.2004V25.0004H58.6999V23.2004Z" fill="#313232"/>
<path d="M56.9001 50H55.1001V51.8H56.9001V50Z" fill="#313232"/>
<path d="M56.9001 37.5H55.1001V39.3H56.9001V37.5Z" fill="#313232"/>
<path d="M55.1 51.7998H53.3V53.5998H55.1V51.7998Z" fill="#313232"/>
<path d="M55.1 39.2998H53.3V41.0998H55.1V39.2998Z" fill="#313232"/>
<path d="M53.3001 55.3996V53.5996H51.6001V55.3996V57.0996H53.3001V55.3996Z" fill="#313232"/>
<path d="M53.4001 41.0996H51.6001V42.8996H53.4001V41.0996Z" fill="#313232"/>
<path d="M51.6001 30.3998H53.3001V28.5998V26.7998H51.6001V28.5998V30.3998Z" fill="#313232"/>
<path d="M51.6 57.0996H49.8V58.8996H51.6V57.0996Z" fill="#313232"/>
<path d="M51.6 42.9004H49.8V44.7004H51.6V42.9004Z" fill="#313232"/>
<path d="M49.8 26.8002H51.6V25.0002V23.2002H49.8V25.0002V26.8002Z" fill="#313232"/>
<path d="M49.8 58.9004H48V60.7004H49.8V58.9004Z" fill="#313232"/>
<path d="M49.8 44.5996H48V46.3996H49.8V44.5996Z" fill="#313232"/>
<path d="M48 23.1996H49.8V21.3996V19.5996H48V21.3996V23.1996Z" fill="#313232"/>
<path d="M46.2 125V126.8V128.6V130.4H48V128.6V126.8V125V123.2V121.4H46.2V123.2V125Z" fill="#313232"/>
<path d="M48 60.7002H46.2V62.5002H48V60.7002Z" fill="#313232"/>
<path d="M48 46.4004H46.2V48.2004H48V46.4004Z" fill="#313232"/>
<path d="M48 32.0996H46.2V33.8996H48V32.0996Z" fill="#313232"/>
<path d="M46.2 19.5996H48V17.8996V16.0996H46.2V17.8996V19.5996Z" fill="#313232"/>
<path d="M46.1999 130.4H44.3999V132.2H46.1999V130.4Z" fill="#313232"/>
<path d="M44.3999 117.9V119.6V121.4H46.1999V119.6V117.9V116.1V114.3H44.3999V116.1V117.9Z" fill="#313232"/>
<path d="M44.3999 108.9V110.7H46.1999V108.9V107.1V105.4H44.3999V107.1V108.9Z" fill="#313232"/>
<path d="M46.1999 50.0002V48.2002H44.3999V50.0002V51.8002H46.1999V50.0002Z" fill="#313232"/>
<path d="M46.1999 30.4004H44.3999V32.2004H46.1999V30.4004Z" fill="#313232"/>
<path d="M44.3999 16.1H46.1999V14.3V12.5H44.3999V14.3V16.1Z" fill="#313232"/>
<path d="M44.4001 132.1H42.6001V133.9H44.4001V132.1Z" fill="#313232"/>
<path d="M44.4001 121.4H42.6001V123.2H44.4001V121.4Z" fill="#313232"/>
<path d="M42.6001 112.5V114.3H44.4001V112.5V110.7H42.6001V112.5Z" fill="#313232"/>
<path d="M44.4 105.4V103.6H42.6H40.8V105.4H42.6H44.4Z" fill="#313232"/>
<path d="M44.4001 51.7998H42.6001V53.5998H44.4001V51.7998Z" fill="#313232"/>
<path d="M44.4001 28.5996H42.6001V30.3996H44.4001V28.5996Z" fill="#313232"/>
<path d="M44.4001 10.7002H42.6001V12.5002H44.4001V10.7002Z" fill="#313232"/>
<path d="M42.6 133.9H40.8V135.7H42.6V133.9Z" fill="#313232"/>
<path d="M42.6 123.2H40.8V125H42.6V123.2Z" fill="#313232"/>
<path d="M42.6 114.3H40.8V116.1H42.6V114.3Z" fill="#313232"/>
<path d="M42.6 55.3996V53.5996H40.8V55.3996V57.0996H42.6V55.3996Z" fill="#313232"/>
<path d="M42.6 26.7998H40.8V28.5998H42.6V26.7998Z" fill="#313232"/>
<path d="M40.8 10.6996H42.6V8.89961V7.09961H40.8V8.89961V10.6996Z" fill="#313232"/>
<path d="M40.9001 135.7H39.1001V137.5H40.9001V135.7Z" fill="#313232"/>
<path d="M40.9001 125H39.1001V126.8H40.9001V125Z" fill="#313232"/>
<path d="M40.9001 116.1H39.1001V117.9H40.9001V116.1Z" fill="#313232"/>
<path d="M40.9001 105.4H39.1001V107.2H40.9001V105.4Z" fill="#313232"/>
<path d="M40.9001 57.0996H39.1001V58.8996H40.9001V57.0996Z" fill="#313232"/>
<path d="M40.9001 25H39.1001V26.8H40.9001V25Z" fill="#313232"/>
<path d="M39.1001 7.09961H40.8001V5.39961V3.59961H39.1001V5.39961V7.09961Z" fill="#313232"/>
<path d="M39.1 126.8H37.3V128.6H39.1V126.8Z" fill="#313232"/>
<path d="M39.1 117.9H37.3V119.7H39.1V117.9Z" fill="#313232"/>
<path d="M39.1 107.1H37.3V108.9H39.1V107.1Z" fill="#313232"/>
<path d="M39.1 55.4004H37.3V57.2004H39.1V55.4004Z" fill="#313232"/>
<path d="M39.1 23.2002H37.3V25.0002H39.1V23.2002Z" fill="#313232"/>
<path d="M39.1 1.8V0H37.3V1.8V3.6H39.1V1.8Z" fill="#313232"/>
<path d="M37.3 119.6H35.5V121.4H37.3V119.6Z" fill="#313232"/>
<path d="M37.3 108.9H35.5V110.7H37.3V108.9Z" fill="#313232"/>
<path d="M37.3 21.4004H35.5V23.2004H37.3V21.4004Z" fill="#313232"/>
<path d="M35.4999 144.6V142.9V141.1V139.3H37.2999H39.0999V137.5H37.2999H35.4999H33.6999H31.8999V139.3H33.6999V141.1V142.9V144.6V146.4V148.2H35.4999V146.4V144.6Z" fill="#313232"/>
<path d="M35.5 110.7H33.7V112.5H35.5V110.7Z" fill="#313232"/>
<path d="M35.4999 55.3996H37.2999V53.5996H35.4999H33.6999H31.8999V55.3996H33.6999H35.4999Z" fill="#313232"/>
<path d="M33.6999 112.5H31.8999V114.3H33.6999V112.5Z" fill="#313232"/>
<path d="M31.9001 108.9V110.7H33.7001V108.9V107.1V105.4V103.6V101.8V100V98.2004V96.4004V94.6004V92.9004V91.1004V89.3004V87.5004V85.7004V83.9004V82.1004V80.4004V78.6004V76.8004V75.0004V73.2004V71.4004V69.6004V67.9004H31.9001V69.6004V71.4004V73.2004V75.0004V76.8004V78.6004V80.4004V82.1004V83.9004V85.7004V87.5004V89.3004V91.1004V92.9004V94.6004V96.4004V98.2004V100V101.8V103.6V105.4H30.1001V107.1H31.9001V108.9Z" fill="#313232"/>
<path d="M31.9001 135.7H30.1001V137.5H31.9001V135.7Z" fill="#313232"/>
<path d="M31.9001 114.3H30.1001V116.1H31.9001V114.3Z" fill="#313232"/>
<path d="M31.9001 66.0996H30.1001V67.8996H31.9001V66.0996Z" fill="#313232"/>
<path d="M31.9001 55.4004H30.1001V57.2004H31.9001V55.4004Z" fill="#313232"/>
<path d="M30.1999 133.9H28.3999V135.7H30.1999V133.9Z" fill="#313232"/>
<path d="M30.1999 116.1H28.3999V117.9H30.1999V116.1Z" fill="#313232"/>
<path d="M30.1999 107.1H28.3999V108.9H30.1999V107.1Z" fill="#313232"/>
<path d="M30.1999 64.2998H28.3999V66.0998H30.1999V64.2998Z" fill="#313232"/>
<path d="M30.1999 57.0996H28.3999V58.8996H30.1999V57.0996Z" fill="#313232"/>
<path d="M28.4001 132.1H26.6001V133.9H28.4001V132.1Z" fill="#313232"/>
<path d="M28.4001 110.7V108.9H26.6001V110.7V112.5H28.4001V110.7Z" fill="#313232"/>
<path d="M28.4001 60.7004V58.9004H26.6001V60.7004V62.5004V64.3004H28.4001V62.5004V60.7004Z" fill="#313232"/>
<path d="M26.6 128.6H24.8V130.4V132.1H26.6V130.4V128.6Z" fill="#313232"/>
<path d="M26.6 114.3V112.5H24.8V114.3V116.1H26.6V114.3Z" fill="#313232"/>
<path d="M24.8 125V123.2V121.4V119.6V117.9V116.1H23V117.9V119.6V121.4V123.2V125V126.8V128.6H24.8V126.8V125Z" fill="#313232"/>
</svg>
